<?xml version="1.0" encoding="utf-8"?>
<!-- Generator: Adobe Illustrator 26.5.0, SVG Export Plug-In . SVG Version: 6.00 Build 0)  -->
<svg version="1.1" id="Ebene_1" xmlns="http://www.w3.org/2000/svg" xmlns:xlink="http://www.w3.org/1999/xlink" x="0px" y="0px"
	 viewBox="0 0 300 133" style="enable-background:new 0 0 300 133;" xml:space="preserve">
<style type="text/css">
	.st0{clip-path:url(#SVGID_00000181055507389872969880000006927909488930393256_);fill:#53565A;}
</style>
<g>
	<defs>
		<rect id="SVGID_1_" y="29" width="300" height="71.2"/>
	</defs>
	<clipPath id="SVGID_00000168828355678708421960000004372544306634885006_">
		<use xlink:href="#SVGID_1_"  style="overflow:visible;"/>
	</clipPath>
	<path style="clip-path:url(#SVGID_00000168828355678708421960000004372544306634885006_);fill:#53565A;" d="M296,54.1
		c2.7,0,4-1.3,4-4s-1.3-4-4-4h-19.5V33.3c0-2.9-1.6-4.3-4.7-4.3c-3.2,0-4.9,1.4-4.9,4.3v62.5c0,2.9,1.6,4.4,4.8,4.4s4.8-1.5,4.8-4.4
		V54.1H296z M177.1,83.5c0,10.8,8,16.1,24.1,16.1H227c2.4,0,3.5-1.3,3.5-4s-1.2-4-3.5-4h-27.5c-8.5,0-12.7-2.7-12.7-8V61.5
		c0-4.9,5.2-7.4,15.5-7.4h32.3c2.7,0,4.1,1.1,4.1,3.2v38.5c0,2.9,1.6,4.4,4.9,4.4c3.2,0,4.8-1.5,4.8-4.4V58.9
		c0-8.5-5.4-12.8-16.1-12.8h-28.2c-18.1,0-27.1,5.1-27.1,15.2L177.1,83.5z M161,62.1c0-10.7-8.1-16.1-24.2-16.1h-27.6
		c-2.4,0-3.6,1.3-3.6,4s1.2,4,3.6,4h29.2c8.5,0,12.8,2.6,12.8,8v22.2c0,4.9-5.2,7.4-15.5,7.4h-21.6c-9.9,0-14.9-2.5-14.9-7.6V33.4
		c0-2.9-1.6-4.4-4.9-4.4c-3.2,0-4.8,1.5-4.8,4.4v50.8c0,10.3,8.6,15.4,25.8,15.4H134c18,0,27-5.1,27-15.2V62.1z M0,83.5
		c0,10.8,8,16.1,24.1,16.1H50c2.4,0,3.5-1.3,3.5-4s-1.2-4-3.5-4H22.5c-8.5,0-12.7-2.7-12.7-8V61.5c0-4.9,5.2-7.4,15.5-7.4h32.3
		c2.7,0,4.1,1.1,4.1,3.2v38.5c0,2.9,1.6,4.4,4.9,4.4c3.2,0,4.8-1.5,4.8-4.4V58.9c0-8.5-5.4-12.8-16.1-12.8H27.1
		C9,46.1,0,51.1,0,61.3L0,83.5z"/>
</g>
</svg>
