<svg xmlns="http://www.w3.org/2000/svg" width="1210" height="325" viewBox="0 0 1210 325" role="img" aria-labelledby="vwb-title vwb-desc">
  <title id="vwb-title">Executive architecture</title>
  <desc id="vwb-desc">Deterministic projection generated by Enterprise Architecture Composer. Node IDs preserve Composer source IDs.</desc>
  <defs>
    <marker id="arrow-default" viewBox="0 0 10 10" refX="9" refY="5" markerWidth="7" markerHeight="7" orient="auto-start-reverse"><path d="M 0 0 L 10 5 L 0 10 z" fill="#98A2B3"/></marker>
    <marker id="arrow-data" viewBox="0 0 10 10" refX="9" refY="5" markerWidth="7" markerHeight="7" orient="auto-start-reverse"><path d="M 0 0 L 10 5 L 0 10 z" fill="#7A5AF8"/></marker>
    <marker id="arrow-control" viewBox="0 0 10 10" refX="9" refY="5" markerWidth="7" markerHeight="7" orient="auto-start-reverse"><path d="M 0 0 L 10 5 L 0 10 z" fill="#0891B2"/></marker>
    <marker id="arrow-danger" viewBox="0 0 10 10" refX="9" refY="5" markerWidth="7" markerHeight="7" orient="auto-start-reverse"><path d="M 0 0 L 10 5 L 0 10 z" fill="#D92D20"/></marker>
  </defs>
  <rect width="1210" height="325" fill="#F7F8FA"/>
  <text x="28" y="38" font-family="Inter, ui-sans-serif, system-ui, sans-serif" font-size="24" font-weight="720" letter-spacing="-0.4" fill="#18212F">Executive architecture</text>
  <text x="28" y="66" font-size="12.5" fill="#667085">Deterministic projection generated by Enterprise Architecture Composer. Node IDs preserve Composer source IDs.</text>
  <g font-family="Inter, ui-sans-serif, system-ui, sans-serif">
    <rect x="1081" y="22" width="101" height="26" rx="13" fill="#FFFFFF" stroke="#D9DEE7"/>
    <text x="1131.5" y="39" text-anchor="middle" font-size="9.5" font-weight="700" letter-spacing="1" fill="#667085">SYSTEM FLOW</text>


    <g data-group-id="applications">

  <rect x="28" y="128" width="1154" height="145" rx="12" fill="#FFFFFF" fill-opacity="0.48" stroke="#D9DEE7"/>
  <line x1="28" y1="158" x2="1182" y2="158" stroke="#D9DEE7"/>
  <text x="42" y="148" font-size="10" font-weight="750" letter-spacing="1.1" fill="#667085">APPLICATIONS &amp; PLATFORMS</text>
</g>
    <path d="M 250 215.5 L 966 215.5" fill="none" stroke="#98A2B3" stroke-width="1.8" stroke-linecap="round" stroke-linejoin="round" marker-end="url(#arrow-default)"/>
<g><rect x="520" y="203.5" width="176" height="24" rx="12" fill="#FFFFFF" stroke="#D9DEE7"/><text x="608" y="219.5" text-anchor="middle" font-size="11" font-weight="600" fill="#475467">Create sales order · Synchronous API</text></g>
<path d="M 966 215.5 L 702 215.5" fill="none" stroke="#7A5AF8" stroke-width="1.8" stroke-linecap="round" stroke-linejoin="round" marker-end="url(#arrow-data)"/>
<g><rect x="746" y="203.5" width="176" height="24" rx="12" fill="#FFFFFF" stroke="#D9DEE7"/><text x="834" y="219.5" text-anchor="middle" font-size="11" font-weight="600" fill="#475467">Release delivery to warehouse · Asynchronous Message</text></g>
<path d="M 702 215.5 L 966 215.5" fill="none" stroke="#7A5AF8" stroke-width="1.8" stroke-linecap="round" stroke-linejoin="round" marker-end="url(#arrow-data)"/>
<g><rect x="746" y="203.5" width="176" height="24" rx="12" fill="#FFFFFF" stroke="#D9DEE7"/><text x="834" y="219.5" text-anchor="middle" font-size="11" font-weight="600" fill="#475467">Report warehouse execution · Domain Event</text></g>
    <g data-node-id="sys.crm">
  <rect x="58" y="176" width="192" height="79" rx="14" fill="#FFFFFF" stroke="#D9DEE7"/>
  <rect x="58" y="176" width="4" height="79" rx="2" fill="#039855"/>
  <circle cx="233" cy="193" r="4" fill="#039855"/>
  <text x="76" y="198" font-size="9.5" font-weight="700" letter-spacing="1.1" fill="#039855">SYSTEM</text>
  <text x="76" y="221" font-size="14" font-weight="650" fill="#18212F"><tspan x="76" dy="0">CRM</tspan></text>
  <text x="76" y="242" font-size="11.5" fill="#667085">Current responsibility</text>

</g>
<g data-node-id="sys.erp">
  <rect x="966" y="176" width="192" height="79" rx="14" fill="#FFFFFF" stroke="#D9DEE7"/>
  <rect x="966" y="176" width="4" height="79" rx="2" fill="#039855"/>
  <circle cx="1141" cy="193" r="4" fill="#039855"/>
  <text x="984" y="198" font-size="9.5" font-weight="700" letter-spacing="1.1" fill="#039855">SYSTEM</text>
  <text x="984" y="221" font-size="14" font-weight="650" fill="#18212F"><tspan x="984" dy="0">ERP</tspan></text>
  <text x="984" y="242" font-size="11.5" fill="#667085">Current responsibility</text>

</g>
<g data-node-id="sys.integration">
  <rect x="286" y="176" width="192" height="79" rx="14" fill="#FFFFFF" stroke="#D9DEE7"/>
  <rect x="286" y="176" width="4" height="79" rx="2" fill="#039855"/>
  <circle cx="461" cy="193" r="4" fill="#039855"/>
  <text x="304" y="198" font-size="9.5" font-weight="700" letter-spacing="1.1" fill="#039855">SYSTEM</text>
  <text x="304" y="221" font-size="14" font-weight="650" fill="#18212F"><tspan x="304" dy="0">Integration Platform</tspan></text>
  <text x="304" y="242" font-size="11.5" fill="#667085">Current responsibility</text>

</g>
<g data-node-id="sys.mdm">
  <rect x="738" y="176" width="192" height="79" rx="14" fill="#FFFFFF" stroke="#D9DEE7"/>
  <rect x="738" y="176" width="4" height="79" rx="2" fill="#039855"/>
  <circle cx="913" cy="193" r="4" fill="#039855"/>
  <text x="756" y="198" font-size="9.5" font-weight="700" letter-spacing="1.1" fill="#039855">SYSTEM</text>
  <text x="756" y="221" font-size="14" font-weight="650" fill="#18212F"><tspan x="756" dy="0">MDM</tspan></text>
  <text x="756" y="242" font-size="11.5" fill="#667085">Current responsibility</text>

</g>
<g data-node-id="sys.wms">
  <rect x="514" y="176" width="188" height="79" rx="14" fill="#FFFFFF" stroke="#D9DEE7"/>
  <rect x="514" y="176" width="4" height="79" rx="2" fill="#356AE6"/>
  <circle cx="685" cy="193" r="4" fill="#98A2B3"/>
  <text x="532" y="198" font-size="9.5" font-weight="700" letter-spacing="1.1" fill="#356AE6">SYSTEM</text>
  <text x="532" y="221" font-size="14" font-weight="650" fill="#18212F"><tspan x="532" dy="0">WMS</tspan></text>
  <text x="532" y="242" font-size="11.5" fill="#667085">Target responsibility</text>

</g>
  </g>
</svg>
